# xmcd CD database file
#
# Track frame offsets:
#	150
#	19196
#	35341
#	52623
#	71030
#	86681
#	104611
#	119993
#	135789
#	158013
#	172828
#	191720
#	208896
#	224590
#
# Disc length: 3198 seconds
#
# Revision: 2
# Processed by: cddbd v1.5.2PL0 Copyright (c) Steve Scherf et al.
# Submitted via: CDex 1.70beta2
#
DISCID=c70c7c0e
DTITLE=陳奕迅 - Sound and Sight [CD1]
DYEAR=2006
DGENRE=Pop
TTITLE0=24
TTITLE1=不求人
TTITLE2=最後今晚
TTITLE3=愛你入骨
TTITLE4=歲月如歌
TTITLE5=2001太空漫遊
TTITLE6=明年今日
TTITLE7=給愛麗斯
TTITLE8=一切還好
TTITLE9=打得火熱
TTITLE10=打回原形
TTITLE11=1874
TTITLE12=單車
TTITLE13=天使的禮物
EXTD=YEAR: 2006
EXTT0=
EXTT1=
EXTT2=
EXTT3=
EXTT4=
EXTT5=
EXTT6=
EXTT7=
EXTT8=
EXTT9=
EXTT10=
EXTT11=
EXTT12=
EXTT13=
PLAYORDER=
